<svg width="25" height="28" viewBox="0 0 25 28" fill="none" xmlns="http://www.w3.org/2000/svg">
<rect width="2.04937" height="22.0074" transform="matrix(-0.493858 0.869543 0.909486 0.415735 3.03784 10.6667)" fill="black"/>
<path fill-rule="evenodd" clip-rule="evenodd" d="M1.53955 0C0.987266 0 0.539551 0.447715 0.539551 1V27C0.539551 27.5523 0.987266 28 1.53955 28H3.99822C4.5505 28 4.99822 27.5523 4.99822 27V1C4.99822 0.447715 4.5505 0 3.99822 0H1.53955ZM4.55235 1.33333H3.512V12H4.55235V1.33333Z" fill="black"/>
<rect width="2.04937" height="22.0074" transform="matrix(0.493858 0.869543 -0.909486 0.415735 22.0413 10.6667)" fill="black"/>
<path fill-rule="evenodd" clip-rule="evenodd" d="M23.5396 0C24.0918 0 24.5396 0.447715 24.5396 1V27C24.5396 27.5523 24.0918 28 23.5396 28H21.0809C20.5286 28 20.0809 27.5523 20.0809 27V1C20.0809 0.447715 20.5286 0 21.0809 0H23.5396ZM20.5267 1.33333H21.5671V12H20.5267V1.33333Z" fill="black"/>
</svg>
