<svg width="38" height="36" viewBox="0 0 38 36" fill="none" xmlns="http://www.w3.org/2000/svg">
<path d="M9.09117 35.213C9.09111 34.687 8.37964 30.1496 8.37964 27.6179H9.80272C9.80272 27.6179 9.09123 34.5223 9.80272 34.5224C10.5142 34.5225 33.995 34.5225 34.7066 34.5224C35.4182 34.5223 34.7066 8.97583 35.4181 8.97583C36.1296 8.97583 36.1297 35.0485 35.4181 35.213C34.7065 35.3774 9.09123 35.739 9.09117 35.213Z" stroke="black"/>
<rect x="0.552734" y="5.52368" width="18.5" height="23.4753" rx="2" fill="black"/>
<rect x="11.9373" width="2.84615" height="5.52361" fill="black"/>
<rect x="4.82202" width="2.84615" height="5.52361" fill="black"/>
<rect x="6.24512" y="28.999" width="5.69231" height="1.3809" fill="black"/>
<rect x="33.2834" y="4.14282" width="4.26923" height="5.52361" fill="black"/>
<rect x="34.7065" y="2.76172" width="1.42308" height="1.3809" fill="black"/>
</svg>
